<svg xmlns="http://www.w3.org/2000/svg" viewBox="0 0 168.69 50.94"><defs><style>.cls-1{fill:#3e3a39;}</style></defs><title>자산 1</title><g id="레이어_2" data-name="레이어 2"><g id="Layer_1" data-name="Layer 1"><path class="cls-1" d="M80.55,27.25H73.86L72.24,13.06,66.45,27.25H62.22L56.47,13.14,54.81,27.25H49.17L52.92.73h5.4L64.9,17.06,71.48.73h5.37Z"/><path class="cls-1" d="M148,7.84c-2.31-1.61-3.74-2.22-5.33-2.22a2.34,2.34,0,0,0-2.46,2.1c-.07,1.26.49,1.9,2.72,3.12a27.85,27.85,0,0,1,5,3.19,7.65,7.65,0,0,1,2.26,5.5c0,5-3.89,8.45-9.45,8.45a15.86,15.86,0,0,1-9-2.91l.71-6.39c2.35,2.18,4.54,3.31,6.81,3.52a2.59,2.59,0,0,0,3.1-2.59c0-1.13-.64-1.86-2.57-2.95-1.29-.73-2.23-1.26-2.69-1.5-3.1-1.82-4.42-4-4.42-7.24a7.53,7.53,0,0,1,3.4-6.38A10.7,10.7,0,0,1,141.29,0c3.06,0,4.88.53,8.2,2.39Z"/><path class="cls-1" d="M45.16,4.33A12.42,12.42,0,0,0,35.25,0C27.8,0,22.13,6.1,22.13,14.11S27.65,28,35.25,28c8,0,13.35-5.74,13.35-14.23A14.59,14.59,0,0,0,45.16,4.33ZM35.37,21.52a7.34,7.34,0,0,1-7.09-7.58,7.34,7.34,0,0,1,7.09-7.57,7.34,7.34,0,0,1,7.08,7.57A7.34,7.34,0,0,1,35.37,21.52Z"/><path class="cls-1" d="M18.91,19.5a7.23,7.23,0,0,1-5,2A7.48,7.48,0,0,1,6.53,14,7.48,7.48,0,0,1,13.9,6.37,7.17,7.17,0,0,1,18.45,8l3.21-5.21A13.52,13.52,0,0,0,13,0C5.67,0,0,6,0,13.75,0,21.87,5,27.61,12.4,28A13.88,13.88,0,0,0,21.74,25Z"/><polygon class="cls-1" points="159.37 21.67 159.37 16.13 167.65 16.13 167.65 10.96 159.37 10.96 159.37 6.19 168.6 6.19 168.6 0.73 152.83 0.73 152.83 27.25 168.6 27.25 168.6 21.67 159.37 21.67"/><path class="cls-1" d="M99.53,2.91c-1.07-1-2.48-2.06-6.25-2.06H82.94v26.4h6.73v-8c.79,0,1.58.08,1.85.08A12.8,12.8,0,0,0,97.94,18a9.16,9.16,0,0,0,4.39-8A9.25,9.25,0,0,0,99.53,2.91Zm-8.2,10.92c-.42,0-1,0-1.66,0V6.35c.64,0,1.36-.08,1.77-.08,2.72,0,4.35,1.45,4.35,3.84S94.13,13.83,91.33,13.83Z"/><path class="cls-1" d="M127.26,4.33A12.4,12.4,0,0,0,117.36,0c-7.45,0-13.12,6.1-13.12,14.11S109.76,28,117.36,28c8,0,13.34-5.74,13.34-14.23A14.53,14.53,0,0,0,127.26,4.33Zm-9.79,17.19a7.34,7.34,0,0,1-7.08-7.58,7.1,7.1,0,1,1,14.16,0A7.34,7.34,0,0,1,117.47,21.52Z"/><path class="cls-1" d="M82.49,42.15h4.39v3.07H82.49v5.31H78.67V35.94h8.78v3.25h-5Z"/><path class="cls-1" d="M93,42.15h4.39v3.07H93v5.31H89.17V35.94H98v3.25H93Z"/><path class="cls-1" d="M60.52,46.27a4.17,4.17,0,1,1-.26-6.33l1.82-2.86a7.85,7.85,0,0,0-4.89-1.54,7.35,7.35,0,0,0-7.38,7.56c0,4.47,2.82,7.63,7,7.83a8,8,0,0,0,5.29-1.62Z"/><polygon class="cls-1" points="103.25 47.46 103.25 44.41 107.93 44.41 107.93 41.57 103.25 41.57 103.25 38.95 108.47 38.95 108.47 35.94 99.54 35.94 99.54 50.53 108.47 50.53 108.47 47.46 103.25 47.46"/><polygon class="cls-1" points="113.56 47.46 113.56 44.41 118.25 44.41 118.25 41.57 113.56 41.57 113.56 38.95 118.79 38.95 118.79 35.94 109.86 35.94 109.86 50.53 118.79 50.53 118.79 47.46 113.56 47.46"/><path class="cls-1" d="M75.34,37.92a7.11,7.11,0,0,0-5.61-2.38,7.46,7.46,0,0,0-7.42,7.76,7.27,7.27,0,0,0,7.42,7.63c4.52,0,7.56-3.16,7.56-7.83A7.9,7.9,0,0,0,75.34,37.92ZM69.8,47.38a4.17,4.17,0,1,1,4-4.17A4.09,4.09,0,0,1,69.8,47.38Z"/><rect class="cls-1" x="1.22" y="41.77" width="43.39" height="2.8"/><rect class="cls-1" x="125.3" y="41.77" width="43.39" height="2.8"/></g></g></svg>