<?xml version="1.0" encoding="utf-8"?>
<!-- Generator: Adobe Illustrator 21.0.0, SVG Export Plug-In . SVG Version: 6.00 Build 0)  -->
<svg version="1.1" id="Layer_1" xmlns="http://www.w3.org/2000/svg" xmlns:xlink="http://www.w3.org/1999/xlink" x="0px" y="0px"
	 viewBox="0 0 141.7 141.7" style="enable-background:new 0 0 141.7 141.7;" xml:space="preserve">
<style type="text/css">
	.st0{fill:#231F20;}
</style>
<path class="st0" d="M135.4,129H9.1V34.1h126.4V129z M15.1,123h114.4V40.1H15.1V123z"/>
<path class="st0" d="M101.7,40.1H42.8l0.6-3.5C45.8,22.5,58,12.3,72.3,12.3s26.4,10.2,28.8,24.3L101.7,40.1z M50.2,34.1h44.1
	c-3.1-9.3-11.9-15.8-22-15.8S53.3,24.8,50.2,34.1z"/>
<path class="st0" d="M72.3,78.5c-14.3,0-26.4-10.2-28.8-24.3l5.9-1c1.9,11.2,11.6,19.3,22.9,19.3s21-8.1,22.9-19.3l5.9,1
	C98.7,68.3,86.6,78.5,72.3,78.5z"/>
</svg>
