<?xml version="1.0" encoding="utf-8"?>
<!-- Generator: Adobe Illustrator 21.0.0, SVG Export Plug-In . SVG Version: 6.00 Build 0)  -->
<svg version="1.1" id="Layer_1" xmlns="http://www.w3.org/2000/svg" xmlns:xlink="http://www.w3.org/1999/xlink" x="0px" y="0px"
	 viewBox="0 0 141.7 141.7" style="enable-background:new 0 0 141.7 141.7;" xml:space="preserve">
<path d="M135.2,129.9H7.1v-3c0-26.7,16.8-50.5,41.4-59.9c-5.7-5.9-9-13.8-9-22.1c0-17.5,14.2-31.7,31.7-31.7s31.7,14.2,31.7,31.7
	c0,8.3-3.3,16.3-9,22.1c24.6,9.3,41.4,33.2,41.4,59.9V129.9z M13.2,123.9h115.8c-1.3-24.6-18.2-46-42.1-52.8l-6-1.7l5.1-3.6
	c6.7-4.8,10.8-12.6,10.8-20.9c0-14.2-11.5-25.7-25.7-25.7S45.5,30.8,45.5,44.9c0,8.3,4,16.1,10.8,20.9l5.1,3.6l-6,1.7
	C31.4,77.9,14.5,99.4,13.2,123.9z"/>
</svg>
